<svg xmlns="http://www.w3.org/2000/svg" viewBox="0 0 32 32" shape-rendering="crispEdges">
  <rect width="32" height="32" fill="#111512"/>
  <rect x="3" y="4" width="1" height="1" fill="#c8f8c8"/>
  <rect x="12" y="4" width="1" height="1" fill="#c8f8c8"/>
  <rect x="20" y="4" width="1" height="1" fill="#c8f8c8"/>
  <rect x="29" y="4" width="1" height="1" fill="#c8f8c8"/>
  <rect x="3" y="5" width="3" height="1" fill="#c8f8c8"/>
  <rect x="10" y="5" width="4" height="1" fill="#c8f8c8"/>
  <rect x="19" y="5" width="4" height="1" fill="#c8f8c8"/>
  <rect x="27" y="5" width="3" height="1" fill="#c8f8c8"/>
  <rect x="3" y="6" width="27" height="1" fill="#c8f8c8"/>
  <rect x="4" y="7" width="25" height="1" fill="#c8f8c8"/>
  <rect x="4" y="8" width="25" height="1" fill="#c8f8c8"/>
  <rect x="4" y="9" width="25" height="1" fill="#c8f8c8"/>
  <rect x="4" y="10" width="25" height="1" fill="#c8f8c8"/>
  <rect x="4" y="11" width="25" height="1" fill="#c8f8c8"/>
  <rect x="5" y="12" width="23" height="1" fill="#c8f8c8"/>
  <rect x="5" y="13" width="23" height="1" fill="#c8f8c8"/>
  <rect x="5" y="14" width="23" height="1" fill="#c8f8c8"/>
  <rect x="5" y="16" width="23" height="1" fill="#c8f8c8"/>
  <rect x="5" y="17" width="23" height="1" fill="#c8f8c8"/>
  <rect x="5" y="18" width="23" height="1" fill="#c8f8c8"/>
  <rect x="5" y="19" width="4" height="1" fill="#c8f8c8"/>
  <rect x="10" y="19" width="18" height="1" fill="#c8f8c8"/>
  <rect x="5" y="20" width="1" height="1" fill="#c8f8c8"/>
  <rect x="9" y="20" width="1" height="1" fill="#c8f8c8"/>
  <rect x="13" y="20" width="9" height="1" fill="#c8f8c8"/>
  <rect x="23" y="20" width="5" height="1" fill="#c8f8c8"/>
  <rect x="5" y="21" width="1" height="1" fill="#c8f8c8"/>
  <rect x="7" y="21" width="5" height="1" fill="#c8f8c8"/>
  <rect x="13" y="21" width="6" height="1" fill="#c8f8c8"/>
  <rect x="22" y="21" width="1" height="1" fill="#c8f8c8"/>
  <rect x="26" y="21" width="4" height="1" fill="#c8f8c8"/>
  <rect x="6" y="22" width="1" height="1" fill="#c8f8c8"/>
  <rect x="9" y="22" width="1" height="1" fill="#c8f8c8"/>
  <rect x="12" y="22" width="1" height="1" fill="#c8f8c8"/>
  <rect x="19" y="22" width="1" height="1" fill="#c8f8c8"/>
  <rect x="21" y="22" width="3" height="1" fill="#c8f8c8"/>
  <rect x="25" y="22" width="1" height="1" fill="#c8f8c8"/>
  <rect x="5" y="23" width="1" height="1" fill="#c8f8c8"/>
  <rect x="7" y="23" width="1" height="1" fill="#c8f8c8"/>
  <rect x="9" y="23" width="1" height="1" fill="#c8f8c8"/>
  <rect x="11" y="23" width="1" height="1" fill="#c8f8c8"/>
  <rect x="13" y="23" width="1" height="1" fill="#c8f8c8"/>
  <rect x="20" y="23" width="1" height="1" fill="#c8f8c8"/>
  <rect x="22" y="23" width="1" height="1" fill="#c8f8c8"/>
  <rect x="24" y="23" width="1" height="1" fill="#c8f8c8"/>
  <rect x="5" y="24" width="1" height="1" fill="#c8f8c8"/>
  <rect x="8" y="24" width="3" height="1" fill="#c8f8c8"/>
  <rect x="13" y="24" width="1" height="1" fill="#c8f8c8"/>
  <rect x="19" y="24" width="1" height="1" fill="#c8f8c8"/>
  <rect x="21" y="24" width="3" height="1" fill="#c8f8c8"/>
  <rect x="25" y="24" width="1" height="1" fill="#c8f8c8"/>
  <rect x="4" y="25" width="11" height="1" fill="#c8f8c8"/>
  <rect x="18" y="25" width="9" height="1" fill="#c8f8c8"/>
  <rect x="5" y="26" width="1" height="1" fill="#c8f8c8"/>
  <rect x="8" y="26" width="3" height="1" fill="#c8f8c8"/>
  <rect x="13" y="26" width="1" height="1" fill="#c8f8c8"/>
  <rect x="19" y="26" width="1" height="1" fill="#c8f8c8"/>
  <rect x="21" y="26" width="3" height="1" fill="#c8f8c8"/>
  <rect x="25" y="26" width="1" height="1" fill="#c8f8c8"/>
  <rect x="5" y="27" width="1" height="1" fill="#c8f8c8"/>
  <rect x="7" y="27" width="1" height="1" fill="#c8f8c8"/>
  <rect x="9" y="27" width="1" height="1" fill="#c8f8c8"/>
  <rect x="11" y="27" width="1" height="1" fill="#c8f8c8"/>
  <rect x="13" y="27" width="1" height="1" fill="#c8f8c8"/>
  <rect x="20" y="27" width="1" height="1" fill="#c8f8c8"/>
  <rect x="22" y="27" width="1" height="1" fill="#c8f8c8"/>
  <rect x="24" y="27" width="1" height="1" fill="#c8f8c8"/>
  <rect x="6" y="28" width="1" height="1" fill="#c8f8c8"/>
  <rect x="9" y="28" width="1" height="1" fill="#c8f8c8"/>
  <rect x="12" y="28" width="1" height="1" fill="#c8f8c8"/>
  <rect x="19" y="28" width="1" height="1" fill="#c8f8c8"/>
  <rect x="21" y="28" width="3" height="1" fill="#c8f8c8"/>
  <rect x="25" y="28" width="1" height="1" fill="#c8f8c8"/>
  <rect x="5" y="29" width="1" height="1" fill="#c8f8c8"/>
  <rect x="7" y="29" width="5" height="1" fill="#c8f8c8"/>
  <rect x="13" y="29" width="1" height="1" fill="#c8f8c8"/>
  <rect x="22" y="29" width="1" height="1" fill="#c8f8c8"/>
  <rect x="9" y="30" width="1" height="1" fill="#c8f8c8"/>
</svg>
